<?xml version="1.0" standalone="no"?>
<!DOCTYPE svg PUBLIC "-//W3C//DTD SVG 20010904//EN"
 "http://www.w3.org/TR/2001/REC-SVG-20010904/DTD/svg10.dtd">
<svg version="1.0" xmlns="http://www.w3.org/2000/svg"
 width="1024.000000pt" height="1024.000000pt" viewBox="0 0 1024.000000 1024.000000"
 preserveAspectRatio="xMidYMid meet">

<g transform="translate(0.000000,1024.000000) scale(0.100000,-0.100000)"
fill="#000000" stroke="none">
<path d="M2600 7417 c0 -48 0 -90 0 -94 0 -5 32 -11 72 -14 172 -15 298 -103
379 -264 37 -73 41 -90 49 -195 5 -63 16 -146 24 -185 8 -38 17 -95 20 -125 3
-30 10 -80 16 -110 6 -30 24 -163 40 -295 16 -132 34 -256 39 -275 5 -19 15
-78 21 -130 6 -52 15 -113 20 -135 4 -22 11 -71 15 -110 4 -38 11 -90 16 -115
11 -52 75 -223 97 -260 80 -132 178 -238 295 -318 115 -78 172 -104 314 -143
70 -18 118 -19 1578 -19 l1506 0 -3 103 -3 102 -1495 5 -1495 5 -83 27 c-134
44 -217 93 -307 183 -142 142 -190 266 -219 565 -2 25 -14 91 -25 148 -12 57
-28 158 -37 225 -8 67 -24 181 -34 252 -11 72 -26 184 -34 250 -9 66 -21 154
-27 195 -6 41 -14 107 -19 146 -24 209 -90 363 -209 484 -118 120 -222 165
-408 177 l-103 6 0 -86z"/>
<path d="M4035 7010 c-22 -11 -61 -43 -87 -71 -80 -87 -88 -193 -28 -364 43
-123 122 -378 155 -500 99 -370 109 -391 200 -434 45 -21 50 -21 975 -21 1022
0 955 -4 1016 62 34 36 57 81 171 343 43 97 52 118 155 345 117 256 137 315
139 397 3 116 -75 221 -186 252 -28 8 -399 11 -1255 11 -1182 -1 -1216 -1
-1255 -20z"/>
<path d="M6931 6824 c0 -11 3 -14 6 -6 3 7 2 16 -1 19 -3 4 -6 -2 -5 -13z"/>
<path d="M6931 6694 c-15 -83 -63 -217 -135 -372 -31 -66 -56 -125 -56 -130 0
-5 -36 -87 -80 -181 -44 -95 -80 -174 -80 -177 0 -18 -100 -208 -129 -244 -52
-66 -119 -123 -171 -145 -43 -19 -75 -20 -1030 -20 l-986 0 -76 38 c-56 27
-89 52 -121 90 -53 62 -69 92 -111 208 -18 49 -35 87 -39 83 -6 -6 20 -84 54
-161 11 -23 19 -44 19 -47 0 -3 15 -29 34 -58 34 -53 80 -100 129 -132 68 -45
76 -46 1114 -46 1076 0 1011 -3 1105 58 45 29 122 140 172 247 21 44 46 98 57
120 49 105 99 217 99 221 0 3 12 31 26 62 15 31 42 93 61 137 19 44 43 98 53
120 9 22 24 56 33 75 29 66 65 195 72 258 9 82 0 80 -14 -4z"/>
<path d="M4384 2715 c24 -19 90 -21 84 -2 -3 7 -25 13 -54 15 -45 2 -48 1 -30
-13z"/>
<path d="M5300 2719 c0 -5 12 -9 27 -9 30 0 27 9 -6 15 -11 2 -21 0 -21 -6z"/>
<path d="M6635 2714 c-27 -7 -70 -17 -95 -22 -44 -9 -44 -10 -10 -11 19 0 91
10 160 23 121 24 123 24 60 24 -36 0 -87 -6 -115 -14z"/>
<path d="M4570 2710 c0 -6 33 -10 80 -10 47 0 80 4 80 10 0 6 -33 10 -80 10
-47 0 -80 -4 -80 -10z"/>
<path d="M5376 2709 c2 -4 13 -7 24 -6 10 1 17 4 14 8 -2 4 -13 7 -24 6 -10
-1 -17 -4 -14 -8z"/>
<path d="M5974 2705 c26 -20 76 -20 76 0 0 11 -12 15 -47 15 -44 -1 -47 -2
-29 -15z"/>
<path d="M10080 80 l0 -80 80 0 80 0 0 80 0 80 -80 0 -80 0 0 -80z"/>
</g>
</svg>
